HIERARCHY
ROOT SpineBase
{
  OFFSET 0.000000 0.000000 0.000000
  CHANNELS 6 Xposition Yposition Zposition Zrotation Xrotation Yrotation
  JOINT SpineMid
  {
    OFFSET 0.000000 29.779231 0.000000
    CHANNELS 3 Zrotation Xrotation Yrotation
    JOINT SpineShoulder
    {
      OFFSET 0.119121 22.122672 -0.671835
      CHANNELS 3 Zrotation Xrotation Yrotation
      JOINT Neck
      {
        OFFSET 0.080889 7.330600 -0.529703
        CHANNELS 3 Zrotation Xrotation Yrotation
        JOINT Head
        {
          OFFSET -5.641043 12.395462 -1.721616
          CHANNELS 3 Zrotation Xrotation Yrotation
          End Site
          {
            OFFSET 0 0 0
          }
        }
      }
      JOINT ShoulderLeft
      {
        OFFSET -14.220309 -5.533838 7.829170
        CHANNELS 3 Zrotation Xrotation Yrotation
        JOINT ElbowLeft
        {
          OFFSET -0.912923 -25.938397 1.356665
          CHANNELS 3 Zrotation Xrotation Yrotation
          JOINT WristLeft
          {
            OFFSET 1.674400 -18.741737 -6.428478
            CHANNELS 3 Zrotation Xrotation Yrotation
            JOINT HandLeft
            {
              OFFSET 0.454421 -5.089998 -0.387715
              CHANNELS 3 Zrotation Xrotation Yrotation
              JOINT HandTipLeft
              {
                OFFSET -0.915256 -5.809823 0.267473
                CHANNELS 3 Zrotation Xrotation Yrotation
                End Site
                {
                  OFFSET 0 0 0
                }
              }
              JOINT ThumbLeft
              {
                OFFSET 3.621308 1.203788 -3.345058
                CHANNELS 3 Zrotation Xrotation Yrotation
                End Site
                {
                  OFFSET 0 0 0
                }
              }
            }
          }
        }
      }
      JOINT ShoulderRight
      {
        OFFSET 13.621785 -2.099867 -8.914459
        CHANNELS 3 Zrotation Xrotation Yrotation
        JOINT ElbowRight
        {
          OFFSET 8.300098 -24.516335 -1.011732
          CHANNELS 3 Zrotation Xrotation Yrotation
          JOINT WristRight
          {
            OFFSET -2.680675 -18.238624 -5.277781
            CHANNELS 3 Zrotation Xrotation Yrotation
            JOINT HandRight
            {
              OFFSET -2.380876 -6.766874 -0.615901
              CHANNELS 3 Zrotation Xrotation Yrotation
              JOINT HandTipRight
              {
                OFFSET -1.359199 -6.449522 -0.671336
                CHANNELS 3 Zrotation Xrotation Yrotation
                End Site
                {
                  OFFSET 0 0 0
                }
              }
              JOINT ThumbRight
              {
                OFFSET -2.639274 1.496415 -1.498331
                CHANNELS 3 Zrotation Xrotation Yrotation
                End Site
                {
                  OFFSET 0 0 0
                }
              }
            }
          }
        }
      }
    }
  }
  JOINT HipLeft
  {
    OFFSET -6.133624 0.283489 -0.457380
    CHANNELS 3 Zrotation Xrotation Yrotation
    JOINT KneeLeft
    {
      OFFSET 5.758183 -29.239050 6.006518
      CHANNELS 3 Zrotation Xrotation Yrotation
      JOINT AnkleLeft
      {
        OFFSET 5.056151 -31.272480 3.068224
        CHANNELS 3 Zrotation Xrotation Yrotation
        JOINT FootLeft
        {
          OFFSET 5.687977 -7.744447 -4.618833
          CHANNELS 3 Zrotation Xrotation Yrotation
          End Site
          {
            OFFSET 0 0 0
          }
        }
      }
    }
  }
  JOINT HipRight
  {
    OFFSET 6.783306 1.552579 -6.065460
    CHANNELS 3 Zrotation Xrotation Yrotation
    JOINT KneeRight
    {
      OFFSET 7.614020 -25.056568 1.554546
      CHANNELS 3 Zrotation Xrotation Yrotation
      JOINT AnkleRight
      {
        OFFSET 2.732300 -35.797935 6.809575
        CHANNELS 3 Zrotation Xrotation Yrotation
        JOINT FootRight
        {
          OFFSET -3.837897 -7.183791 -3.164270
          CHANNELS 3 Zrotation Xrotation Yrotation
          End Site
          {
            OFFSET 0 0 0
          }
        }
      }
    }
  }
}
MOTION
Frames: 10
Frame Time: 0.033333
-30.768264 69.684675 341.956108 -1.527141 0.384689 22.474798 -0.485923 0.205683 -22.535015 -0.052755 0.037318 -0.092007 -10.698830 -5.036193 -4.531778 0.000000 0.000000 0.000000 -1.342463 -1.630611 -0.035196 -2.382197 -4.379675 1.478041 8.496988 17.588812 -1.386977 14.597772 -2.318305 0.164986 0.000000 0.000000 0.000000 0.000000 0.000000 0.000000 161.166676 66.705381 -102.046837 128.286375 43.798540 12.757058 31.533035 -20.355639 -49.535648 -31.324842 -3.500035 19.956085 0.000000 0.000000 0.000000 0.000000 0.000000 0.000000 -1.713402 1.593534 -22.974154 3.730645 -1.167548 0.569884 -10.246970 15.268196 18.365675 0.000000 0.000000 0.000000 -1.812282 -0.206790 -22.838476 1.523434 0.981329 0.087668 10.670426 6.945989 -8.312221 0.000000 0.000000 0.000000
-30.768987 69.615475 342.002983 -1.752581 0.338921 22.194067 -0.347115 0.170410 -22.256015 -0.021085 0.029431 -0.093018 -10.374889 -4.176988 -3.977474 0.000000 0.000000 0.000000 -1.434953 -1.592513 -0.040386 -2.304973 -4.365124 1.508758 9.231906 16.307648 -1.673279 14.265392 -1.831258 0.207809 0.000000 0.000000 0.000000 0.000000 0.000000 0.000000 162.937100 65.739306 -103.111114 125.660948 41.228924 10.027077 42.834922 -9.530616 -42.989883 -31.140830 -5.718090 14.149389 0.000000 0.000000 0.000000 0.000000 0.000000 0.000000 -1.418435 1.514513 -22.676691 3.648773 -1.172666 0.551596 -3.642401 11.109644 10.325876 0.000000 0.000000 0.000000 -1.392818 -0.155600 -22.492779 1.301790 0.813595 0.012755 10.520877 6.715210 -8.033797 0.000000 0.000000 0.000000
-30.771881 69.521568 342.051324 -1.917779 0.315023 21.756104 -0.217242 0.158532 -21.818346 0.012755 0.056744 -0.092014 -10.371039 -3.431542 -3.522633 0.000000 0.000000 0.000000 -1.576243 -1.626908 -0.051740 -2.293219 -4.572843 1.530976 10.242436 16.881651 -1.935405 13.031432 -2.940065 0.407205 0.000000 0.000000 0.000000 0.000000 0.000000 0.000000 162.539909 65.660075 -102.521361 125.727810 40.370645 8.133234 38.595234 -13.948674 -46.059528 -32.088178 7.479429 25.832986 0.000000 0.000000 0.000000 0.000000 0.000000 0.000000 -1.199133 1.358832 -22.234617 3.545117 -1.101218 0.541332 -3.315602 11.439956 10.314452 0.000000 0.000000 0.000000 -0.994962 -0.093686 -21.980336 1.037805 0.615924 -0.074010 10.190203 6.403216 -7.604119 0.000000 0.000000 0.000000
-30.696645 69.462413 342.038398 -1.916676 0.421052 21.548827 -0.140964 0.100999 -21.607390 0.013944 0.083396 -0.088326 -10.788815 -2.901506 -3.238408 0.000000 0.000000 0.000000 -1.782109 -1.712184 -0.070911 -2.124420 -4.553655 1.522192 10.771737 15.901594 -2.116670 12.866319 0.925338 -0.620900 0.000000 0.000000 0.000000 0.000000 0.000000 0.000000 161.364688 65.459150 -100.967781 125.211783 38.986682 6.641635 36.147352 -15.083625 -47.052497 -36.100259 0.012252 28.106771 0.000000 0.000000 0.000000 0.000000 0.000000 0.000000 -1.323460 1.180135 -22.060642 3.590688 -0.998942 0.567923 -1.078910 7.487101 6.021814 0.000000 0.000000 0.000000 -1.200345 -0.210196 -21.809308 1.073191 0.685784 -0.062708 10.329714 6.281997 -7.521397 0.000000 0.000000 0.000000
-30.595977 69.453973 341.984138 -1.848035 0.545993 21.594833 -0.161459 0.014935 -21.651033 -0.034821 0.075391 -0.088946 -11.068080 -2.319410 -2.930631 0.000000 0.000000 0.000000 -1.805517 -1.674870 -0.073986 -2.144401 -4.428716 1.549631 11.519647 15.248708 -2.320425 10.130046 0.387893 -0.669026 0.000000 0.000000 0.000000 0.000000 0.000000 0.000000 160.966232 65.716528 -100.777024 125.375202 39.062829 6.959870 31.279159 -18.594194 -49.759407 -38.193471 -4.149272 31.863102 0.000000 0.000000 0.000000 0.000000 0.000000 0.000000 -1.607183 1.049029 -22.161708 3.737933 -0.891450 0.616722 -5.230694 9.109332 10.076220 0.000000 0.000000 0.000000 -1.664633 -0.348145 -21.937230 1.274003 0.832908 -0.011650 10.754861 6.232764 -7.623362 0.000000 0.000000 0.000000
-30.539531 69.510485 341.904806 -1.807160 0.692056 21.671834 -0.238835 -0.114691 -21.728335 -0.076192 0.069379 -0.091414 -11.288306 -1.548540 -2.515662 0.000000 0.000000 0.000000 -1.866467 -1.677506 -0.077863 -2.294408 -4.371504 1.636395 12.223467 14.561194 -2.548190 6.503632 1.011964 -1.146212 0.000000 0.000000 0.000000 0.000000 0.000000 0.000000 160.766157 65.568358 -100.376290 124.959973 40.080610 10.374756 25.573912 -25.729528 -56.853174 -42.454410 -6.276318 42.003817 0.000000 0.000000 0.000000 0.000000 0.000000 0.000000 -1.789888 0.904342 -22.271055 4.102012 -1.662297 0.541396 -7.571919 8.535035 10.760771 0.000000 0.000000 0.000000 -2.140483 -0.561872 -22.118237 1.542619 0.983097 0.062366 10.748242 6.345312 -7.607421 0.000000 0.000000 0.000000
-30.461750 69.671678 341.781232 -1.734927 0.920304 21.559683 -0.327375 -0.248857 -21.615723 -0.124473 0.063972 -0.094005 -11.618310 -0.974541 -2.203120 0.000000 0.000000 0.000000 -2.041369 -1.848264 -0.093266 -2.259277 -4.149042 1.713873 13.213339 13.050543 -2.846134 3.373532 0.520926 -1.005010 0.000000 0.000000 0.000000 0.000000 0.000000 0.000000 161.181453 65.224268 -100.438525 124.158225 42.363375 16.390143 18.024868 -33.633353 -67.037765 -46.915767 -9.232525 53.983390 0.000000 0.000000 0.000000 0.000000 0.000000 0.000000 -2.072906 0.620901 -22.214488 4.247909 -1.680875 0.563041 -9.245219 7.664888 11.245053 0.000000 0.000000 0.000000 -2.839729 -0.815585 -22.138910 2.073469 1.165761 0.171113 10.543241 6.716736 -7.707959 0.000000 0.000000 0.000000
-30.401473 69.908495 341.635896 -1.656519 1.191065 21.308527 -0.413595 -0.371586 -21.364085 -0.164700 0.049780 -0.096392 -12.028883 -0.576269 -1.988383 0.000000 0.000000 0.000000 -2.293299 -2.098944 -0.117552 -1.957407 -3.868305 1.733284 12.781924 11.509027 -2.782993 1.344588 0.861468 -1.004121 0.000000 0.000000 0.000000 0.000000 0.000000 0.000000 161.082351 64.588245 -99.576952 122.968549 45.222373 23.851213 11.241971 -40.982516 -78.080159 -47.033271 -20.265356 53.748743 0.000000 0.000000 0.000000 0.000000 0.000000 0.000000 -2.391727 0.265871 -22.030538 4.421079 -1.610480 0.601772 -10.130703 7.171310 11.423178 0.000000 0.000000 0.000000 -3.544276 -1.138718 -22.032588 2.600540 1.383714 0.285483 9.957015 7.084933 -7.619838 0.000000 0.000000 0.000000
-30.304901 70.171089 341.443309 -1.562682 1.473528 21.024849 -0.473510 -0.488462 -21.078869 -0.209083 0.015245 -0.098030 -12.288937 -0.236252 -1.776122 0.000000 0.000000 0.000000 -2.581995 -2.397270 -0.146910 -1.561657 -3.629055 1.711665 12.228456 10.368138 -2.683389 1.122013 1.591926 -0.956902 0.000000 0.000000 0.000000 0.000000 0.000000 0.000000 160.420568 64.056490 -98.195112 121.886249 49.023467 32.293775 -1.980420 -48.165531 -94.835379 -41.248002 -30.237535 42.741529 0.000000 0.000000 0.000000 0.000000 0.000000 0.000000 -2.849967 -0.134326 -21.857510 4.745912 -1.367106 0.692992 -10.683076 6.822092 11.454078 0.000000 0.000000 0.000000 -4.312285 -1.485806 -21.914258 3.155676 1.628368 0.405176 9.386324 7.398705 -7.495032 0.000000 0.000000 0.000000
-30.228324 70.442981 341.259310 -1.504018 1.705818 20.745584 -0.482306 -0.564230 -20.797215 -0.236960 -0.017842 -0.098601 -12.392424 0.071428 -1.552541 0.000000 0.000000 0.000000 -2.836095 -2.686997 -0.175551 -1.333257 -3.494161 1.713766 11.251485 11.046950 -2.449589 2.462589 -0.779142 -0.562305 0.000000 0.000000 0.000000 0.000000 0.000000 0.000000 159.448895 63.792285 -96.738479 121.295051 51.030356 36.651067 -2.471460 -51.599421 -97.535096 -42.730728 -38.251572 35.982418 0.000000 0.000000 0.000000 0.000000 0.000000 0.000000 -3.312527 -0.511717 -21.708191 5.099609 -1.117269 0.790834 -11.003792 6.661612 11.463445 0.000000 0.000000 0.000000 -4.895616 -1.796724 -21.774424 3.546829 1.822014 0.493336 8.734229 7.661143 -7.263732 0.000000 0.000000 0.000000
